<svg width="104" height="56" viewBox="0 0 104 56" fill="none" xmlns="http://www.w3.org/2000/svg">
<rect width="104" height="56"/>
<path d="M82.0928 43.6999C86.5594 40.294 89.4782 34.6556 89.4782 28.2744C89.4782 21.8932 86.5595 16.2495 82.0928 12.8436H95.12V43.6999H82.0928ZM52.1682 28.2718C52.1682 34.6537 55.0837 40.2931 59.5454 43.6999H46.5184V12.8436H59.5456C55.0837 16.2501 52.1682 21.8895 52.1682 28.2718Z" fill="#2FCF6E"/>
<path d="M70.5686 43.7001C62.267 43.7001 55.5372 36.7927 55.5372 28.272C55.5372 19.7512 62.267 12.8438 70.5686 12.8438C78.8702 12.8438 85.6 19.7512 85.6 28.272C85.6 36.7927 78.8702 43.7001 70.5686 43.7001ZM77.6388 28.3231L77.6308 28.3075L77.6294 28.3049C77.6245 28.2891 77.6208 28.2727 77.6153 28.2556L77.6146 28.2543L77.6139 28.253L77.6132 28.2516L77.6125 28.2503L77.6119 28.249L77.6112 28.2477L77.6098 28.2451C77.4395 27.6507 77.1019 27.1235 76.6409 26.732L76.6402 26.7306C76.6266 26.7198 76.6122 26.7076 76.5986 26.6968L76.5797 26.6822L76.5661 26.6714L76.5602 26.6663L76.5472 26.6567L76.5413 26.6516L76.5284 26.6421L76.5225 26.637L76.5089 26.6262L76.5017 26.6217L76.4881 26.6109L76.481 26.6065L76.4663 26.5963L76.4592 26.5919L76.4505 26.5782L76.4428 26.5725L76.4281 26.5623L76.4203 26.5566L76.4054 26.5464L76.3977 26.5407L76.383 26.5305L76.3752 26.5248L76.3596 26.5133L76.3519 26.5076L76.3351 26.4969L76.3273 26.4911L76.3105 26.4804L76.3027 26.4747L76.2859 26.4639L76.2781 26.4582L76.2613 26.4474L76.2523 26.4423L76.2355 26.4316L76.2264 26.4265L76.2084 26.4163L76.1993 26.4112L76.1806 26.3999L76.1715 26.3948L76.1528 26.3834L76.1437 26.3783L76.125 26.367L76.1152 26.3607L76.0964 26.3494L76.0867 26.3431L76.0667 26.3324L76.0569 26.3261L76.0369 26.3154L76.0234 26.3079L76.0227 26.3065C76.0129 26.3002 76.0027 26.2959 75.993 26.2896C75.5782 26.0671 75.1304 25.9194 74.6684 25.8527C74.798 25.7074 74.9166 25.5519 75.0233 25.3875L75.0403 25.3612L75.0416 25.3605L75.0494 25.3476L75.0597 25.3301L75.0652 25.322L75.0755 25.3044L75.081 25.2963L75.0913 25.2788L75.0968 25.2706L75.1071 25.2531L75.1126 25.245L75.1229 25.2275L75.1283 25.2193L75.1374 25.2025L75.1428 25.1944L75.1519 25.1775L75.1561 25.17L75.1652 25.1532L75.1694 25.1457L75.1785 25.1288L75.1827 25.1214L75.1905 25.1052L75.1947 25.0978L75.2025 25.0816L75.2068 25.0742L75.2145 25.058L75.2188 25.0505L75.2272 25.0357L75.2314 25.0283L75.2399 25.0134L75.2441 25.006L75.2514 24.9919L75.2556 24.9844L75.2628 24.9703L75.2658 24.9635L75.2731 24.9494L75.276 24.9427L75.2833 24.9286L75.2863 24.9218L75.2935 24.9077L75.2965 24.901L75.3024 24.8875L75.3054 24.8808L75.3114 24.8673L75.3143 24.8606L75.3203 24.8471L75.3233 24.8404L75.3298 24.8251L75.3388 24.8047C75.3453 24.7894 75.3506 24.7745 75.3571 24.7591L75.3584 24.7583C75.5572 24.247 75.6038 23.6849 75.4921 23.1455L75.4915 23.1442L75.4901 23.1416L75.4894 23.1403L75.4887 23.1389L75.488 23.1376L75.4874 23.1363L75.4867 23.135L75.486 23.1336C75.483 23.1183 75.48 23.1034 75.4758 23.0889V23.0856L75.4751 23.0842L75.4745 23.0829L75.4738 23.0816L75.4745 23.0829L75.4684 23.0712C75.464 23.0501 75.4596 23.029 75.4532 23.0074C75.4488 22.9863 75.4425 22.9646 75.4368 22.9442L75.4294 22.9299L75.428 22.9273C75.4238 22.9129 75.4196 22.8984 75.4153 22.884L75.4147 22.8826L75.414 22.8813L75.4133 22.88L75.4126 22.8787L75.4119 22.8773L75.4112 22.876L75.4106 22.8747C75.2594 22.3457 74.959 21.8766 74.5487 21.5284L74.548 21.5271C74.5363 21.5169 74.5233 21.5073 74.5116 21.4971L74.4954 21.4843L74.4824 21.4748L74.4765 21.4697L74.4655 21.4608L74.4596 21.4557L74.4486 21.4467L74.4427 21.4416L74.4304 21.4334L74.4245 21.4283L74.4115 21.4188L74.4057 21.4137L74.3927 21.4042L74.3868 21.3991L74.3738 21.3895L74.3667 21.3851L74.3537 21.3755L74.3465 21.3711L74.3335 21.3616L74.3264 21.3571L74.3122 21.3483L74.3051 21.3439L74.2908 21.3351L74.2837 21.3306L74.2695 21.3218L74.2624 21.3174L74.2481 21.3085L74.241 21.3041L74.2261 21.2939L74.219 21.2895L74.2041 21.2793L74.1969 21.2748L74.1808 21.2654L74.1736 21.261L74.1575 21.2515L74.1497 21.2458L74.1336 21.2364L74.1258 21.2307L74.1097 21.2212L74.1019 21.2155L74.0851 21.2048L74.0761 21.1997L74.0593 21.1889L74.0502 21.1838L74.0321 21.1736L74.0231 21.1685L74.005 21.1583L73.9921 21.1521L73.9914 21.1508L73.9643 21.1355C73.1721 20.7057 72.1657 20.5763 71.1531 20.8475L70.8897 20.9181L70.2234 18.2101L68.6795 18.6232L69.3435 21.3204L68.1081 21.6528L67.4436 18.9642L65.8996 19.3773L66.5637 22.0745L63.3796 22.9297L63.8033 24.6482L65.0863 24.3043C65.2904 24.2494 65.5072 24.2815 65.6886 24.3935C65.8701 24.5055 66.0014 24.6883 66.0537 24.9015L67.8344 32.1337C67.907 32.4295 67.7365 32.7307 67.4533 32.8072L66.3292 33.109L66.3952 35.1529L69.5755 34.2999L70.2481 36.9922L71.7913 36.5778L71.1268 33.8793L72.3618 33.5487L73.0266 36.2472L74.5697 35.8328L73.9028 33.1237C74.1642 33.0523 74.3892 32.9918 74.5448 32.9497C75.686 32.6434 76.6088 31.9451 77.1672 31.0743L77.186 31.0453L77.1873 31.0446L77.1965 31.031L77.2086 31.0106L77.2146 31.0004L77.2267 30.98L77.2328 30.9698L77.2437 30.9502L77.2497 30.94L77.2606 30.9204L77.2654 30.911L77.2763 30.8914L77.2812 30.882L77.292 30.8624L77.2969 30.853L77.3067 30.8341L77.3116 30.8247L77.3213 30.8058L77.3262 30.7964L77.3365 30.7788L77.3414 30.7694L77.3517 30.7518L77.3566 30.7424L77.3657 30.7255L77.3705 30.7161L77.3796 30.6993L77.3845 30.6898L77.3935 30.673L77.3971 30.6643L77.4061 30.6475L77.4097 30.6387L77.4174 30.6226L77.4217 30.6151L77.4295 30.599L77.4337 30.5915L77.4415 30.5753L77.4457 30.5679L77.4535 30.5517L77.4578 30.5443L77.4655 30.5281L77.4698 30.5207L77.4775 30.5045L77.4818 30.4971L77.4883 30.4818L77.4926 30.4743L77.4991 30.459L77.5021 30.4523L77.5092 30.4349L77.519 30.4127C77.5262 30.3952 77.5337 30.3791 77.5398 30.3623L77.5404 30.3603C77.7637 29.785 77.8162 29.153 77.6912 28.5461L77.6905 28.5448L77.6898 28.5435L77.6891 28.5422L77.6884 28.5408L77.6877 28.5395L77.687 28.5382L77.6864 28.5369L77.6857 28.5355C77.682 28.5191 77.6784 28.5026 77.6747 28.4862V28.4829L77.6741 28.4815L77.6734 28.4802L77.6727 28.4789L77.672 28.4776L77.6713 28.4762L77.6706 28.4749L77.6699 28.4736L77.6693 28.4723L77.6686 28.4709L77.6679 28.4696L77.6672 28.4683L77.6665 28.467L77.6658 28.4656L77.6632 28.4605C77.6574 28.4369 77.6529 28.4125 77.6459 28.3895C77.6435 28.3758 77.6402 28.3507 77.6388 28.3231ZM68.5676 23.4851C68.831 23.4145 69.92 23.129 70.2792 23.0315C70.8501 22.879 71.4127 22.9382 71.8519 23.159L71.8666 23.1659L71.873 23.169L71.8821 23.1741L71.8866 23.1766L71.8956 23.1817L71.9001 23.1842L71.9092 23.1893L71.9136 23.1918L71.9227 23.1969L71.9272 23.1994L71.9362 23.2045L71.9407 23.207L71.9498 23.2121L71.9542 23.2146L71.9633 23.2197L71.9678 23.2222L71.9768 23.2273L71.9813 23.2298L71.9904 23.2349L71.9949 23.2374L72.0026 23.2431L72.0071 23.2456L72.0149 23.2513L72.0194 23.2538L72.0271 23.2595L72.0316 23.262L72.0388 23.2664L72.0433 23.2689L72.0504 23.2734L72.0549 23.2759L72.062 23.2803L72.0665 23.2828L72.0737 23.2872L72.0782 23.2897L72.0853 23.2942L72.0886 23.2974L72.0957 23.3018L72.0983 23.3037L72.1054 23.3082L72.108 23.31L72.1151 23.3145L72.1177 23.3164L72.1249 23.3208L72.1275 23.3227L72.1333 23.3278L72.1359 23.3297L72.143 23.3341L72.1528 23.3404C72.1599 23.3449 72.1664 23.3513 72.1736 23.3557C72.3984 23.5329 72.5636 23.7799 72.6455 24.0613L72.6475 24.0652C72.6496 24.0725 72.6523 24.081 72.6544 24.0882L72.6551 24.0896L72.6592 24.0974C72.6621 24.1092 72.6655 24.119 72.6684 24.1309C72.6716 24.143 72.6736 24.1553 72.6746 24.1678L72.6786 24.1756L72.6793 24.1769C72.6804 24.185 72.6823 24.1929 72.6851 24.2006L72.6871 24.2045C72.7448 24.4921 72.7141 24.7914 72.5991 25.0596L72.589 25.0838L72.5837 25.0952L72.5794 25.1027L72.5782 25.1067L72.5752 25.1134L72.5741 25.1175L72.5698 25.1249L72.5687 25.1289L72.5644 25.1364L72.5632 25.1404L72.559 25.1478L72.5578 25.1519L72.5536 25.1593L72.5524 25.1634L72.5481 25.1708L72.547 25.1748L72.5427 25.1823L72.5403 25.187L72.5361 25.1944L72.5337 25.1991L72.5294 25.2065L72.527 25.2112L72.5228 25.2187L72.5204 25.2234L72.5149 25.2315L72.5125 25.2362L72.507 25.2443L72.5046 25.249L72.4992 25.2571L72.4968 25.2618L72.4913 25.2699L72.4889 25.2746L72.4834 25.2827L72.481 25.2874L72.4756 25.2955L72.4732 25.3002L72.4677 25.3083L72.4653 25.313L72.4598 25.3211L72.4574 25.3258L72.4507 25.3346L72.4483 25.3393L72.4416 25.3481L72.4392 25.3528L72.4324 25.3616L72.43 25.3663L72.4233 25.3751L72.4184 25.3813L72.4093 25.3948C72.1254 25.81 71.6601 26.1455 71.0891 26.298C70.7293 26.3942 69.6429 26.6915 69.3798 26.7621L68.5676 23.4851ZM74.6023 29.0295L74.6063 29.0373L74.607 29.0387C74.6085 29.0479 74.6107 29.0551 74.6122 29.0642L74.6129 29.0655L74.6136 29.0668L74.6142 29.0681L74.6149 29.0695C74.6758 29.3867 74.6321 29.716 74.4908 30.0039L74.4769 30.0302L74.4703 30.0423L74.4654 30.0518L74.463 30.0565L74.4588 30.0639L74.4564 30.0686L74.4521 30.076L74.4497 30.0807L74.4443 30.0888L74.4419 30.0935L74.4364 30.1016L74.434 30.1063L74.4285 30.1144L74.4261 30.1191L74.4207 30.1272L74.4183 30.1319L74.4128 30.14L74.4104 30.1447L74.4049 30.1528L74.4025 30.1575L74.3971 30.1656L74.3947 30.1703L74.3892 30.1784L74.3868 30.1831L74.3813 30.1912L74.3789 30.1959L74.3722 30.2048L74.3698 30.2094L74.3631 30.2183L74.3607 30.223L74.3546 30.2332L74.3522 30.2379L74.3462 30.2481L74.3438 30.2527L74.3377 30.2629L74.334 30.2683L74.328 30.2785L74.3243 30.284L74.317 30.2948L74.3133 30.3002L74.306 30.311L74.3023 30.3164L74.295 30.3272L74.2913 30.3326L74.284 30.3434L74.2803 30.3488L74.273 30.3596L74.2668 30.3665L74.2552 30.3814C73.9104 30.841 73.3542 31.219 72.6787 31.4C72.2527 31.5148 70.9656 31.8662 70.6524 31.9496L69.7761 28.3908C70.0888 28.3061 71.3794 27.9678 71.8053 27.8531C72.4809 27.6721 73.1441 27.7234 73.6566 27.9519L73.6734 27.9593L73.6817 27.9631L73.6939 27.9682L73.6997 27.9699L73.7106 27.9755L73.7164 27.9773L73.7273 27.9829L73.7331 27.9847L73.7441 27.9903L73.7486 27.9928L73.7595 27.9984L73.764 28.0009L73.7749 28.0066L73.7794 28.0091L73.7904 28.0147L73.7949 28.0172L73.8039 28.0223L73.8084 28.0248L73.8174 28.0299L73.8219 28.0324L73.831 28.0375L73.8355 28.04L73.8445 28.0451L73.849 28.0476L73.858 28.0527L73.8625 28.0552L73.8716 28.0603L73.8761 28.0628L73.8851 28.0679L73.8896 28.0704L73.8986 28.0755L73.9031 28.078L73.9122 28.0831L73.9167 28.0855L73.9244 28.0913L73.9289 28.0938L73.9367 28.0995L73.9412 28.102L73.949 28.1077L73.9535 28.1102L73.9612 28.1159L73.9657 28.1184L73.9735 28.1241L73.978 28.1266L73.9851 28.131L73.9896 28.1335L73.9974 28.1392L74.0078 28.1469C74.0155 28.1526 74.0246 28.1577 74.0322 28.1634C74.2886 28.3449 74.4789 28.6114 74.5722 28.9199L74.5749 28.925C74.5777 28.9335 74.5798 28.9407 74.5826 28.9492L74.5833 28.9506L74.5873 28.9584C74.5902 28.9702 74.5931 28.982 74.5967 28.9952C74.603 28.9981 74.604 29.0126 74.602 29.0306L74.6023 29.0295Z" fill="#2FCF6E"/>
<path fill-rule="evenodd" clip-rule="evenodd" d="M42.2911 32.4224C40.0283 41.3483 30.8356 46.7965 21.7372 44.5708C12.6624 42.3452 7.12325 33.3034 9.38607 24.3776C11.6489 15.4517 20.8415 10.0035 29.9164 12.2292C39.0148 14.4316 44.5539 23.4966 42.2911 32.4224Z" fill="#F7931A"/>
<path fill-rule="evenodd" clip-rule="evenodd" d="M31.7659 29.5954C32.442 29.0985 32.958 28.3765 33.1622 27.4921C33.805 24.7081 32.5254 22.6533 29.7502 22.0125L29.752 22.013L30.5215 18.6717C30.5499 18.5487 30.5353 18.5899 30.569 18.444L29.0187 18.0902C28.8991 18.0626 28.8047 18.0367 28.8047 18.0367L27.9758 21.6029L26.1996 21.1928L26.9691 17.8516C26.9975 17.7286 26.9905 17.7568 27.021 17.6249L25.2471 17.2153C25.2012 17.4138 25.2289 17.3157 25.1967 17.4333L24.4234 20.7828L20.4184 19.8551C20.4184 19.8551 20.4015 19.9597 20.3727 20.0819L20.0064 21.6395L20.4574 21.7436C21.4383 21.9701 22.0494 22.9515 21.8222 23.9355L20.1792 31.0631C19.9642 31.9944 19.7682 32.7971 18.6026 32.528C18.5081 32.5062 17.8509 32.3583 17.548 32.2884L17.1947 33.8185C17.1722 33.9079 17.1257 34.1175 17.1257 34.1175C17.1257 34.1175 17.3508 34.1636 17.4192 34.1794L21.1327 35.0367L20.3082 38.5998L22.0844 39.0099L22.1358 38.7872L22.9088 35.4468L24.685 35.8568L23.8624 39.4444L25.3987 39.7991L25.6266 39.8517L26.4612 36.2669L27.3475 36.4715C30.1227 37.1122 32.1735 35.8262 32.8163 33.0422C33.1174 31.7381 32.6673 30.4532 31.7659 29.5954ZM25.5912 23.8624L28.2554 24.4775C29.2363 24.704 29.8474 25.6854 29.6202 26.6693C29.3931 27.6533 28.4136 28.2675 27.4327 28.0411L24.7685 27.426L25.5912 23.8624ZM27.0662 33.5896L23.5138 32.7695L24.3365 29.2059L27.8889 30.0261C28.8698 30.2525 29.4809 31.2339 29.2537 32.2179C29.0265 33.2019 28.0471 33.816 27.0662 33.5896Z" fill="white"/>
</svg>
